<svg preserveAspectRatio="none" overflow="visible" style="display: block;" width="31.2" height="31.2" viewBox="0 0 31.2 31.2" fill="none" xmlns="http://www.w3.org/2000/svg">
<g id="Logotype [Symbol]">
<path id="&#226;&#128;&#162;" d="M9.86645 28.67C14.5976 28.67 18.4329 24.8347 18.4329 20.1036C18.4329 15.3725 14.5976 11.5372 9.86645 11.5372C5.13533 11.5372 1.3 15.3725 1.3 20.1036C1.3 24.8347 5.13533 28.67 9.86645 28.67Z" fill="#04E061"/>
<path id="&#226;&#128;&#162;_2" d="M24.7243 27.5903C27.5828 27.5903 29.9 25.273 29.9 22.4146C29.9 19.5561 27.5828 17.2388 24.7243 17.2388C21.8658 17.2388 19.5485 19.5561 19.5485 22.4146C19.5485 25.273 21.8658 27.5903 24.7243 27.5903Z" fill="#FF4053"/>
<path id="&#226;&#128;&#162;_3" d="M11.504 10.4255C13.2733 10.4255 14.7075 8.99128 14.7075 7.22206C14.7075 5.45284 13.2733 4.01861 11.504 4.01861C9.73482 4.01861 8.30058 5.45284 8.30058 7.22206C8.30058 8.99128 9.73482 10.4255 11.504 10.4255Z" fill="#965EEB"/>
<path id="&#226;&#128;&#162;_4" d="M22.7121 16.1232C26.5586 16.1232 29.6769 13.005 29.6769 9.15847C29.6769 5.31196 26.5586 2.19375 22.7121 2.19375C18.8656 2.19375 15.7474 5.31196 15.7474 9.15847C15.7474 13.005 18.8656 16.1232 22.7121 16.1232Z" fill="#00AAFF"/>
</g>
</svg>
